<mxfile host="app.diagrams.net" agent="Mozilla/5.0 (X11; Linux x86_64) AppleWebKit/537.36 (KHTML, like Gecko) Chrome/140.0.0.0 Safari/537.36" version="28.2.3">
  <diagram name="Page-1" id="KrJh2647HyVLYSY83AsD">
    <mxGraphModel dx="2583" dy="1339" grid="0" gridSize="16" guides="1" tooltips="1" connect="1" arrows="1" fold="1" page="0" pageScale="1" pageWidth="2336" pageHeight="1654" background="light-dark(#FFFFFF,#FFFFFF)" math="0" shadow="1">
      <root>
        <mxCell id="0" />
        <mxCell id="1" parent="0" />
        <mxCell id="noT6OPc7KWXwN-QOkJ8w-33" value="" style="aspect=fixed;sketch=0;html=1;dashed=0;whitespace=wrap;verticalLabelPosition=bottom;verticalAlign=top;fillColor=#2875E2;strokeColor=#ffffff;points=[[0.005,0.63,0],[0.1,0.2,0],[0.9,0.2,0],[0.5,0,0],[0.995,0.63,0],[0.72,0.99,0],[0.5,1,0],[0.28,0.99,0]];shape=mxgraph.kubernetes.icon2;prIcon=api" vertex="1" parent="1">
          <mxGeometry x="45" y="1362" width="123.96" height="119" as="geometry" />
        </mxCell>
        <mxCell id="noT6OPc7KWXwN-QOkJ8w-34" style="edgeStyle=orthogonalEdgeStyle;rounded=0;orthogonalLoop=1;jettySize=auto;html=1;strokeColor=light-dark(#000000,#000000);startArrow=classic;startFill=1;" edge="1" parent="1" source="noT6OPc7KWXwN-QOkJ8w-33">
          <mxGeometry relative="1" as="geometry">
            <mxPoint x="357" y="1421" as="targetPoint" />
          </mxGeometry>
        </mxCell>
        <mxCell id="UWKuqt-AQDNdEF9zmf-2-14" value="&lt;font style=&quot;color: light-dark(rgb(0, 0, 0), rgb(0, 0, 0));&quot;&gt;REGION - US-EAST-1&lt;/font&gt;" style="points=[[0,0],[0.25,0],[0.5,0],[0.75,0],[1,0],[1,0.25],[1,0.5],[1,0.75],[1,1],[0.75,1],[0.5,1],[0.25,1],[0,1],[0,0.75],[0,0.5],[0,0.25]];outlineConnect=0;gradientColor=none;html=1;whiteSpace=wrap;fontSize=14;fontStyle=0;container=1;pointerEvents=0;collapsible=0;recursiveResize=0;shape=mxgraph.aws4.group;grIcon=mxgraph.aws4.group_region;strokeColor=#00A4A6;fillColor=none;verticalAlign=top;align=left;spacingLeft=30;fontColor=#147EBA;dashed=1;strokeWidth=3;" parent="1" vertex="1">
          <mxGeometry x="438" y="341" width="1788" height="1789" as="geometry" />
        </mxCell>
        <mxCell id="UWKuqt-AQDNdEF9zmf-2-33" style="edgeStyle=orthogonalEdgeStyle;rounded=0;orthogonalLoop=1;jettySize=auto;html=1;strokeColor=light-dark(#000000,#000000);strokeWidth=2;startArrow=classic;startFill=1;" parent="UWKuqt-AQDNdEF9zmf-2-14" target="UWKuqt-AQDNdEF9zmf-2-27" edge="1">
          <mxGeometry relative="1" as="geometry">
            <mxPoint x="59" y="1077" as="sourcePoint" />
          </mxGeometry>
        </mxCell>
        <mxCell id="qT7BtbfHSmZu9XCEKp0R-1" value="&lt;font style=&quot;font-size: 14px; color: light-dark(rgb(0, 0, 0), rgb(0, 0, 0));&quot;&gt;Security group&lt;/font&gt;" style="fillColor=none;strokeColor=#DD3522;verticalAlign=top;fontStyle=0;fontColor=#DD3522;whiteSpace=wrap;html=1;strokeWidth=3;dashed=1;" parent="UWKuqt-AQDNdEF9zmf-2-14" vertex="1">
          <mxGeometry x="623.5" y="690.5" width="203" height="301.5" as="geometry" />
        </mxCell>
        <mxCell id="UWKuqt-AQDNdEF9zmf-2-27" value="" style="sketch=0;outlineConnect=0;fontColor=#232F3E;gradientColor=none;fillColor=#8C4FFF;strokeColor=none;dashed=0;verticalLabelPosition=bottom;verticalAlign=top;align=center;html=1;fontSize=12;fontStyle=0;aspect=fixed;pointerEvents=1;shape=mxgraph.aws4.internet_gateway;" parent="UWKuqt-AQDNdEF9zmf-2-14" vertex="1">
          <mxGeometry x="251" y="1018.5" width="117" height="117" as="geometry" />
        </mxCell>
        <mxCell id="UWKuqt-AQDNdEF9zmf-2-28" value="VPC" style="sketch=0;outlineConnect=0;gradientColor=none;html=1;whiteSpace=wrap;fontSize=12;fontStyle=0;shape=mxgraph.aws4.group;grIcon=mxgraph.aws4.group_vpc;strokeColor=#879196;fillColor=none;verticalAlign=top;align=left;spacingLeft=30;fontColor=#879196;dashed=0;strokeWidth=2;" parent="UWKuqt-AQDNdEF9zmf-2-14" vertex="1">
          <mxGeometry x="306" y="409" width="1312" height="1337" as="geometry" />
        </mxCell>
        <mxCell id="UWKuqt-AQDNdEF9zmf-2-15" value="&lt;font style=&quot;font-size: 17px; color: light-dark(rgb(0, 0, 0), rgb(0, 0, 0));&quot;&gt;Availability Zone (A)&lt;/font&gt;" style="fillColor=none;strokeColor=#147EBA;dashed=1;verticalAlign=top;fontStyle=0;fontColor=#147EBA;whiteSpace=wrap;html=1;strokeWidth=3;" parent="UWKuqt-AQDNdEF9zmf-2-14" vertex="1">
          <mxGeometry x="440" y="459" width="1083" height="588" as="geometry" />
        </mxCell>
        <mxCell id="UWKuqt-AQDNdEF9zmf-2-17" value="&lt;font style=&quot;font-size: 15px; color: light-dark(rgb(0, 0, 0), rgb(0, 0, 0));&quot;&gt;Subnet Privada&lt;/font&gt;&lt;div&gt;&lt;font style=&quot;font-size: 15px; color: light-dark(rgb(0, 0, 0), rgb(0, 0, 0));&quot;&gt;&lt;br&gt;&lt;/font&gt;&lt;/div&gt;&lt;div&gt;&lt;font style=&quot;font-size: 15px; color: light-dark(rgb(0, 0, 0), rgb(0, 0, 0));&quot;&gt;10.0.1.0/24&lt;/font&gt;&lt;/div&gt;" style="sketch=0;outlineConnect=0;gradientColor=none;html=1;whiteSpace=wrap;fontSize=12;fontStyle=0;shape=mxgraph.aws4.group;grIcon=mxgraph.aws4.group_subnet;strokeColor=#879196;fillColor=none;verticalAlign=top;align=left;spacingLeft=30;fontColor=#879196;dashed=0;strokeWidth=2;" parent="UWKuqt-AQDNdEF9zmf-2-14" vertex="1">
          <mxGeometry x="1013" y="570" width="444" height="434" as="geometry" />
        </mxCell>
        <mxCell id="UWKuqt-AQDNdEF9zmf-2-19" value="&lt;font style=&quot;font-size: 15px; color: light-dark(rgb(0, 0, 0), rgb(0, 0, 0));&quot;&gt;Subnet Publica&lt;/font&gt;&lt;div&gt;&lt;font style=&quot;font-size: 15px; color: light-dark(rgb(0, 0, 0), rgb(0, 0, 0));&quot;&gt;&lt;br&gt;&lt;/font&gt;&lt;/div&gt;&lt;div&gt;&lt;font style=&quot;font-size: 15px; color: light-dark(rgb(0, 0, 0), rgb(0, 0, 0));&quot;&gt;10.0.2.0/24&lt;/font&gt;&lt;/div&gt;" style="sketch=0;outlineConnect=0;gradientColor=none;html=1;whiteSpace=wrap;fontSize=12;fontStyle=0;shape=mxgraph.aws4.group;grIcon=mxgraph.aws4.group_subnet;strokeColor=light-dark(#879196,#007C07);fillColor=none;verticalAlign=top;align=left;spacingLeft=30;fontColor=#879196;dashed=0;strokeWidth=2;" parent="UWKuqt-AQDNdEF9zmf-2-14" vertex="1">
          <mxGeometry x="512" y="573" width="426" height="432" as="geometry" />
        </mxCell>
        <mxCell id="noT6OPc7KWXwN-QOkJ8w-22" style="edgeStyle=orthogonalEdgeStyle;rounded=0;orthogonalLoop=1;jettySize=auto;html=1;" edge="1" parent="UWKuqt-AQDNdEF9zmf-2-14" target="noT6OPc7KWXwN-QOkJ8w-20">
          <mxGeometry relative="1" as="geometry">
            <mxPoint x="1235.030303030303" y="736.25" as="sourcePoint" />
          </mxGeometry>
        </mxCell>
        <mxCell id="Kt1PBpjjFYM7WXRiR346-1" value="" style="outlineConnect=0;dashed=0;verticalLabelPosition=bottom;verticalAlign=top;align=center;html=1;shape=mxgraph.aws3.ec2;fillColor=#F58534;gradientColor=none;" parent="UWKuqt-AQDNdEF9zmf-2-14" vertex="1">
          <mxGeometry x="666" y="736.25" width="76.5" height="93" as="geometry" />
        </mxCell>
        <mxCell id="Kt1PBpjjFYM7WXRiR346-4" value="&lt;font style=&quot;color: light-dark(rgb(0, 0, 0), rgb(0, 0, 0));&quot;&gt;EC2&lt;/font&gt;" style="text;html=1;align=center;verticalAlign=middle;whiteSpace=wrap;rounded=0;fontStyle=1;fontSize=16;" parent="UWKuqt-AQDNdEF9zmf-2-14" vertex="1">
          <mxGeometry x="642" y="829.25" width="118" height="30" as="geometry" />
        </mxCell>
        <mxCell id="UWKuqt-AQDNdEF9zmf-2-45" value="" style="sketch=0;points=[[0,0,0],[0.25,0,0],[0.5,0,0],[0.75,0,0],[1,0,0],[0,1,0],[0.25,1,0],[0.5,1,0],[0.75,1,0],[1,1,0],[0,0.25,0],[0,0.5,0],[0,0.75,0],[1,0.25,0],[1,0.5,0],[1,0.75,0]];outlineConnect=0;fontColor=#232F3E;fillColor=#ED7100;strokeColor=#ffffff;dashed=0;verticalLabelPosition=bottom;verticalAlign=top;align=center;html=1;fontSize=12;fontStyle=0;aspect=fixed;shape=mxgraph.aws4.resourceIcon;resIcon=mxgraph.aws4.ec2;" parent="UWKuqt-AQDNdEF9zmf-2-14" vertex="1">
          <mxGeometry x="742.5" y="766.25" width="45" height="45" as="geometry" />
        </mxCell>
        <mxCell id="UWKuqt-AQDNdEF9zmf-2-46" value="&lt;font style=&quot;color: light-dark(rgb(0, 0, 0), rgb(0, 0, 0));&quot;&gt;Instance&lt;/font&gt;" style="text;html=1;align=center;verticalAlign=middle;whiteSpace=wrap;rounded=0;fontStyle=1;fontSize=16;" parent="UWKuqt-AQDNdEF9zmf-2-14" vertex="1">
          <mxGeometry x="714" y="812.75" width="118" height="30" as="geometry" />
        </mxCell>
        <mxCell id="UWKuqt-AQDNdEF9zmf-2-47" value="" style="outlineConnect=0;dashed=0;verticalLabelPosition=bottom;verticalAlign=top;align=center;html=1;shape=mxgraph.aws3.parameter_store;fillColor=#759C3E;gradientColor=none;" parent="UWKuqt-AQDNdEF9zmf-2-14" vertex="1">
          <mxGeometry x="830" y="156" width="75" height="102" as="geometry" />
        </mxCell>
        <mxCell id="UWKuqt-AQDNdEF9zmf-2-48" value="&lt;font&gt;Parameter Store&lt;/font&gt;" style="text;html=1;align=center;verticalAlign=middle;whiteSpace=wrap;rounded=0;fontStyle=1;fontSize=18;fontColor=light-dark(#000000,#000000);" parent="UWKuqt-AQDNdEF9zmf-2-14" vertex="1">
          <mxGeometry x="908.5" y="186" width="150" height="30" as="geometry" />
        </mxCell>
        <mxCell id="qT7BtbfHSmZu9XCEKp0R-5" value="&lt;font style=&quot;font-size: 17px; color: light-dark(rgb(0, 0, 0), rgb(0, 0, 0));&quot;&gt;Availability Zone (B)&lt;/font&gt;" style="fillColor=none;strokeColor=#147EBA;dashed=1;verticalAlign=top;fontStyle=0;fontColor=#147EBA;whiteSpace=wrap;html=1;strokeWidth=3;" parent="UWKuqt-AQDNdEF9zmf-2-14" vertex="1">
          <mxGeometry x="440" y="1098" width="1083" height="588" as="geometry" />
        </mxCell>
        <mxCell id="qT7BtbfHSmZu9XCEKp0R-6" value="&lt;font style=&quot;font-size: 15px; color: light-dark(rgb(0, 0, 0), rgb(0, 0, 0));&quot;&gt;Subnet Privada&lt;/font&gt;&lt;div&gt;&lt;font style=&quot;font-size: 15px; color: light-dark(rgb(0, 0, 0), rgb(0, 0, 0));&quot;&gt;&lt;br&gt;&lt;/font&gt;&lt;/div&gt;&lt;div&gt;&lt;font style=&quot;font-size: 15px; color: light-dark(rgb(0, 0, 0), rgb(0, 0, 0));&quot;&gt;10.0.3.0/24&lt;/font&gt;&lt;/div&gt;" style="sketch=0;outlineConnect=0;gradientColor=none;html=1;whiteSpace=wrap;fontSize=12;fontStyle=0;shape=mxgraph.aws4.group;grIcon=mxgraph.aws4.group_subnet;strokeColor=#879196;fillColor=none;verticalAlign=top;align=left;spacingLeft=30;fontColor=#879196;dashed=0;strokeWidth=2;" parent="UWKuqt-AQDNdEF9zmf-2-14" vertex="1">
          <mxGeometry x="1013" y="1209" width="444" height="426" as="geometry" />
        </mxCell>
        <mxCell id="qT7BtbfHSmZu9XCEKp0R-7" value="&lt;font style=&quot;font-size: 15px; color: light-dark(rgb(0, 0, 0), rgb(0, 0, 0));&quot;&gt;Subnet Publica&lt;/font&gt;&lt;div&gt;&lt;font style=&quot;font-size: 15px; color: light-dark(rgb(0, 0, 0), rgb(0, 0, 0));&quot;&gt;&lt;br&gt;&lt;/font&gt;&lt;/div&gt;&lt;div&gt;&lt;font style=&quot;font-size: 15px; color: light-dark(rgb(0, 0, 0), rgb(0, 0, 0));&quot;&gt;10.0.4.0/24&lt;/font&gt;&lt;/div&gt;" style="sketch=0;outlineConnect=0;gradientColor=none;html=1;whiteSpace=wrap;fontSize=12;fontStyle=0;shape=mxgraph.aws4.group;grIcon=mxgraph.aws4.group_subnet;strokeColor=light-dark(#879196,#007C07);fillColor=none;verticalAlign=top;align=left;spacingLeft=30;fontColor=#879196;dashed=0;strokeWidth=2;" parent="UWKuqt-AQDNdEF9zmf-2-14" vertex="1">
          <mxGeometry x="512" y="1212" width="426" height="423" as="geometry" />
        </mxCell>
        <mxCell id="qT7BtbfHSmZu9XCEKp0R-9" value="Text" style="text;html=1;align=center;verticalAlign=middle;whiteSpace=wrap;rounded=0;" parent="UWKuqt-AQDNdEF9zmf-2-14" vertex="1">
          <mxGeometry x="965" y="1446" width="60" height="30" as="geometry" />
        </mxCell>
        <mxCell id="qT7BtbfHSmZu9XCEKp0R-10" value="Text" style="text;html=1;align=center;verticalAlign=middle;whiteSpace=wrap;rounded=0;" parent="UWKuqt-AQDNdEF9zmf-2-14" vertex="1">
          <mxGeometry x="965" y="1446" width="60" height="30" as="geometry" />
        </mxCell>
        <mxCell id="qT7BtbfHSmZu9XCEKp0R-25" style="edgeStyle=orthogonalEdgeStyle;rounded=0;orthogonalLoop=1;jettySize=auto;html=1;strokeColor=light-dark(#000000,#0B0B0B);startArrow=classic;startFill=1;" parent="UWKuqt-AQDNdEF9zmf-2-14" source="UWKuqt-AQDNdEF9zmf-2-27" target="UWKuqt-AQDNdEF9zmf-2-19" edge="1">
          <mxGeometry relative="1" as="geometry">
            <Array as="points">
              <mxPoint x="329" y="785" />
            </Array>
          </mxGeometry>
        </mxCell>
        <mxCell id="qT7BtbfHSmZu9XCEKp0R-27" style="edgeStyle=orthogonalEdgeStyle;rounded=0;orthogonalLoop=1;jettySize=auto;html=1;strokeColor=light-dark(#000000,#000000);startArrow=classic;startFill=1;" parent="UWKuqt-AQDNdEF9zmf-2-14" source="UWKuqt-AQDNdEF9zmf-2-27" target="qT7BtbfHSmZu9XCEKp0R-7" edge="1">
          <mxGeometry relative="1" as="geometry">
            <Array as="points">
              <mxPoint x="332" y="1428" />
            </Array>
          </mxGeometry>
        </mxCell>
        <mxCell id="noT6OPc7KWXwN-QOkJ8w-1" value="AWS Secrets Manager" style="sketch=0;outlineConnect=0;fontColor=#232F3E;gradientColor=none;strokeColor=#ffffff;fillColor=#232F3E;dashed=0;verticalLabelPosition=middle;verticalAlign=bottom;align=center;html=1;whiteSpace=wrap;fontSize=10;fontStyle=1;spacing=3;shape=mxgraph.aws4.productIcon;prIcon=mxgraph.aws4.secrets_manager;" vertex="1" parent="UWKuqt-AQDNdEF9zmf-2-14">
          <mxGeometry x="824" y="287" width="70" height="100" as="geometry" />
        </mxCell>
        <mxCell id="noT6OPc7KWXwN-QOkJ8w-14" style="edgeStyle=orthogonalEdgeStyle;rounded=0;orthogonalLoop=1;jettySize=auto;html=1;strokeColor=light-dark(#000000,#000000);endArrow=none;endFill=0;entryX=0.565;entryY=-0.004;entryDx=0;entryDy=0;entryPerimeter=0;" edge="1" parent="UWKuqt-AQDNdEF9zmf-2-14" source="noT6OPc7KWXwN-QOkJ8w-4" target="qT7BtbfHSmZu9XCEKp0R-1">
          <mxGeometry relative="1" as="geometry">
            <mxPoint x="738" y="745" as="targetPoint" />
            <Array as="points">
              <mxPoint x="738" y="72" />
            </Array>
          </mxGeometry>
        </mxCell>
        <mxCell id="noT6OPc7KWXwN-QOkJ8w-4" value="" style="sketch=0;outlineConnect=0;fontColor=#232F3E;gradientColor=none;fillColor=#DD344C;strokeColor=none;dashed=0;verticalLabelPosition=bottom;verticalAlign=top;align=center;html=1;fontSize=12;fontStyle=0;aspect=fixed;pointerEvents=1;shape=mxgraph.aws4.role;" vertex="1" parent="UWKuqt-AQDNdEF9zmf-2-14">
          <mxGeometry x="808.59" y="46" width="90.41" height="51" as="geometry" />
        </mxCell>
        <mxCell id="noT6OPc7KWXwN-QOkJ8w-5" value="&lt;font&gt;IAM Role&lt;/font&gt;" style="text;html=1;align=center;verticalAlign=middle;whiteSpace=wrap;rounded=0;fontStyle=1;fontSize=19;fontColor=light-dark(#000000,#000000);" vertex="1" parent="UWKuqt-AQDNdEF9zmf-2-14">
          <mxGeometry x="937.5" y="56.5" width="85" height="30" as="geometry" />
        </mxCell>
        <mxCell id="noT6OPc7KWXwN-QOkJ8w-9" style="edgeStyle=orthogonalEdgeStyle;rounded=0;orthogonalLoop=1;jettySize=auto;html=1;strokeColor=light-dark(#000000,#000000);endArrow=none;endFill=0;" edge="1" parent="UWKuqt-AQDNdEF9zmf-2-14" source="noT6OPc7KWXwN-QOkJ8w-1">
          <mxGeometry relative="1" as="geometry">
            <mxPoint x="739" y="336" as="targetPoint" />
          </mxGeometry>
        </mxCell>
        <mxCell id="noT6OPc7KWXwN-QOkJ8w-10" style="edgeStyle=orthogonalEdgeStyle;rounded=0;orthogonalLoop=1;jettySize=auto;html=1;strokeColor=light-dark(#000000,#000000);startArrow=none;startFill=0;endArrow=none;endFill=0;" edge="1" parent="UWKuqt-AQDNdEF9zmf-2-14" source="UWKuqt-AQDNdEF9zmf-2-47">
          <mxGeometry relative="1" as="geometry">
            <mxPoint x="740" y="207" as="targetPoint" />
          </mxGeometry>
        </mxCell>
        <mxCell id="noT6OPc7KWXwN-QOkJ8w-15" value="&lt;font&gt;Secrets Manager&lt;/font&gt;" style="text;html=1;align=center;verticalAlign=middle;whiteSpace=wrap;rounded=0;fontStyle=1;fontSize=18;fontColor=light-dark(#000000,#000000);" vertex="1" parent="UWKuqt-AQDNdEF9zmf-2-14">
          <mxGeometry x="908.5" y="322" width="150" height="30" as="geometry" />
        </mxCell>
        <mxCell id="noT6OPc7KWXwN-QOkJ8w-17" value="&lt;font style=&quot;color: light-dark(rgb(0, 0, 0), rgb(0, 0, 0));&quot;&gt;RDS&lt;br&gt;(PostgreSql)&lt;/font&gt;" style="text;html=1;align=center;verticalAlign=middle;whiteSpace=wrap;rounded=0;fontStyle=1;fontSize=16;" vertex="1" parent="UWKuqt-AQDNdEF9zmf-2-14">
          <mxGeometry x="1176" y="1330" width="118" height="30" as="geometry" />
        </mxCell>
        <mxCell id="noT6OPc7KWXwN-QOkJ8w-19" value="&lt;font&gt;STANDBY&lt;/font&gt;" style="text;html=1;align=center;verticalAlign=middle;whiteSpace=wrap;rounded=0;fontStyle=1;fontSize=16;fontColor=light-dark(#000000,#060606);" vertex="1" parent="UWKuqt-AQDNdEF9zmf-2-14">
          <mxGeometry x="1176" y="1484" width="118" height="30" as="geometry" />
        </mxCell>
        <mxCell id="noT6OPc7KWXwN-QOkJ8w-20" value="Amazon RDS" style="sketch=0;outlineConnect=0;fontColor=#232F3E;gradientColor=none;strokeColor=#ffffff;fillColor=#232F3E;dashed=0;verticalLabelPosition=middle;verticalAlign=bottom;align=center;html=1;whiteSpace=wrap;fontSize=10;fontStyle=1;spacing=3;shape=mxgraph.aws4.productIcon;prIcon=mxgraph.aws4.rds;" vertex="1" parent="UWKuqt-AQDNdEF9zmf-2-14">
          <mxGeometry x="1195" y="751" width="80" height="100" as="geometry" />
        </mxCell>
        <mxCell id="noT6OPc7KWXwN-QOkJ8w-21" value="Amazon RDS" style="sketch=0;outlineConnect=0;dashed=0;verticalLabelPosition=middle;verticalAlign=bottom;align=center;html=1;whiteSpace=wrap;fontSize=10;fontStyle=1;spacing=3;shape=mxgraph.aws4.productIcon;prIcon=mxgraph.aws4.rds;fillColor=#f9f7ed;strokeColor=#36393d;" vertex="1" parent="UWKuqt-AQDNdEF9zmf-2-14">
          <mxGeometry x="1195" y="1379" width="80" height="100" as="geometry" />
        </mxCell>
        <mxCell id="noT6OPc7KWXwN-QOkJ8w-35" value="SG(EC2) : EC2 / RDS" style="swimlane;fontStyle=0;childLayout=stackLayout;horizontal=1;startSize=30;horizontalStack=0;resizeParent=1;resizeParentMax=0;resizeLast=0;collapsible=1;marginBottom=0;whiteSpace=wrap;html=1;fillColor=light-dark(#FAD9D5,#FF8575);strokeColor=#ae4132;" vertex="1" parent="UWKuqt-AQDNdEF9zmf-2-14">
          <mxGeometry x="627" y="882" width="196" height="109" as="geometry" />
        </mxCell>
        <mxCell id="noT6OPc7KWXwN-QOkJ8w-36" value="&lt;font style=&quot;color: light-dark(rgb(0, 0, 0), rgb(0, 0, 0));&quot;&gt;INBOUND: &lt;br&gt;- SSH : 22 - MEU IP&lt;br&gt;- CUSTOM TCP: 5000 - MEU IP&lt;/font&gt;" style="text;strokeColor=none;fillColor=none;align=left;verticalAlign=middle;spacingLeft=4;spacingRight=4;overflow=hidden;points=[[0,0.5],[1,0.5]];portConstraint=eastwest;rotatable=0;whiteSpace=wrap;html=1;" vertex="1" parent="noT6OPc7KWXwN-QOkJ8w-35">
          <mxGeometry y="30" width="196" height="49" as="geometry" />
        </mxCell>
        <mxCell id="noT6OPc7KWXwN-QOkJ8w-38" value="&lt;font style=&quot;color: light-dark(rgb(0, 0, 0), rgb(0, 0, 0));&quot;&gt;OUTBOUND:&lt;/font&gt;&lt;div&gt;&lt;font style=&quot;color: light-dark(rgb(0, 0, 0), rgb(0, 0, 0));&quot;&gt;- ALL TRAFIC - 0.0.0.0/0&amp;nbsp;&lt;/font&gt;&lt;/div&gt;" style="text;strokeColor=none;fillColor=none;align=left;verticalAlign=middle;spacingLeft=4;spacingRight=4;overflow=hidden;points=[[0,0.5],[1,0.5]];portConstraint=eastwest;rotatable=0;whiteSpace=wrap;html=1;" vertex="1" parent="noT6OPc7KWXwN-QOkJ8w-35">
          <mxGeometry y="79" width="196" height="30" as="geometry" />
        </mxCell>
        <mxCell id="noT6OPc7KWXwN-QOkJ8w-40" value="&lt;font style=&quot;font-size: 14px; color: light-dark(rgb(0, 0, 0), rgb(0, 0, 0));&quot;&gt;Security group&lt;/font&gt;" style="fillColor=none;strokeColor=#DD3522;verticalAlign=top;fontStyle=0;fontColor=#DD3522;whiteSpace=wrap;html=1;strokeWidth=3;dashed=1;" vertex="1" parent="UWKuqt-AQDNdEF9zmf-2-14">
          <mxGeometry x="1133.5" y="691.5" width="203" height="301.5" as="geometry" />
        </mxCell>
        <mxCell id="noT6OPc7KWXwN-QOkJ8w-41" value="SG (RDS) : RDS / EC2" style="swimlane;fontStyle=0;childLayout=stackLayout;horizontal=1;startSize=30;horizontalStack=0;resizeParent=1;resizeParentMax=0;resizeLast=0;collapsible=1;marginBottom=0;whiteSpace=wrap;html=1;fillColor=light-dark(#FAD9D5,#FF8575);strokeColor=#ae4132;" vertex="1" parent="UWKuqt-AQDNdEF9zmf-2-14">
          <mxGeometry x="1137" y="882" width="196" height="109" as="geometry" />
        </mxCell>
        <mxCell id="noT6OPc7KWXwN-QOkJ8w-42" value="&lt;font style=&quot;color: light-dark(rgb(0, 0, 0), rgb(0, 0, 0));&quot;&gt;INBOUND: &lt;br&gt;- POSTGRES : 5432 - sg (EC2)&lt;br&gt;&lt;/font&gt;" style="text;strokeColor=default;fillColor=none;align=left;verticalAlign=middle;spacingLeft=4;spacingRight=4;overflow=hidden;points=[[0,0.5],[1,0.5]];portConstraint=eastwest;rotatable=0;whiteSpace=wrap;html=1;" vertex="1" parent="noT6OPc7KWXwN-QOkJ8w-41">
          <mxGeometry y="30" width="196" height="49" as="geometry" />
        </mxCell>
        <mxCell id="noT6OPc7KWXwN-QOkJ8w-43" value="&lt;font style=&quot;color: light-dark(rgb(0, 0, 0), rgb(0, 0, 0));&quot;&gt;OUTBOUND:&lt;/font&gt;&lt;div&gt;&lt;font style=&quot;color: light-dark(rgb(0, 0, 0), rgb(0, 0, 0));&quot;&gt;- ALL TRAFIC - 0.0.0.0/0&amp;nbsp;&lt;/font&gt;&lt;/div&gt;" style="text;strokeColor=default;fillColor=none;align=left;verticalAlign=middle;spacingLeft=4;spacingRight=4;overflow=hidden;points=[[0,0.5],[1,0.5]];portConstraint=eastwest;rotatable=0;whiteSpace=wrap;html=1;" vertex="1" parent="noT6OPc7KWXwN-QOkJ8w-41">
          <mxGeometry y="79" width="196" height="30" as="geometry" />
        </mxCell>
        <mxCell id="noT6OPc7KWXwN-QOkJ8w-44" value="&lt;font style=&quot;font-size: 15px;&quot;&gt;Route Tables&lt;/font&gt;" style="swimlane;fontStyle=0;childLayout=stackLayout;horizontal=1;startSize=30;horizontalStack=0;resizeParent=1;resizeParentMax=0;resizeLast=0;collapsible=1;marginBottom=0;whiteSpace=wrap;html=1;fillColor=light-dark(#FFFFFF,#4D4D4D);strokeColor=light-dark(#AE4132,#B17DFF);" vertex="1" parent="UWKuqt-AQDNdEF9zmf-2-14">
          <mxGeometry x="28" y="742" width="262" height="214" as="geometry" />
        </mxCell>
        <mxCell id="noT6OPc7KWXwN-QOkJ8w-48" value="&lt;font style=&quot;font-size: 15px;&quot;&gt;ROUTES: &lt;br&gt;- 0.0.0.0/0 -&amp;gt; IGW&lt;br&gt;- 10.0.0.0/16 -&amp;gt; local&lt;/font&gt;&lt;div&gt;&lt;font style=&quot;font-size: 15px;&quot;&gt;&lt;br&gt;&lt;/font&gt;&lt;/div&gt;&lt;div&gt;&lt;font style=&quot;font-size: 15px;&quot;&gt;SUBNETS:&lt;/font&gt;&lt;/div&gt;&lt;div&gt;&lt;font style=&quot;font-size: 15px;&quot;&gt;&amp;nbsp;publica A: 10.0.2.0/24&lt;/font&gt;&lt;/div&gt;&lt;div&gt;&lt;font style=&quot;font-size: 15px;&quot;&gt;&amp;nbsp;privada A: 10.0.1.0/24&lt;br&gt;&lt;div style=&quot;&quot;&gt;&lt;font style=&quot;&quot;&gt;&amp;nbsp;publica B: 10.0.4.0/24&lt;/font&gt;&lt;/div&gt;&lt;div style=&quot;&quot;&gt;&lt;font style=&quot;&quot;&gt;&amp;nbsp;privada B: 10.0.3.0/24&lt;/font&gt;&lt;/div&gt;&lt;/font&gt;&lt;/div&gt;" style="text;strokeColor=light-dark(#000000,#000000);fillColor=none;align=left;verticalAlign=middle;spacingLeft=4;spacingRight=4;overflow=hidden;points=[[0,0.5],[1,0.5]];portConstraint=eastwest;rotatable=0;whiteSpace=wrap;html=1;fontColor=light-dark(#000000,#000000);" vertex="1" parent="noT6OPc7KWXwN-QOkJ8w-44">
          <mxGeometry y="30" width="262" height="184" as="geometry" />
        </mxCell>
        <mxCell id="noT6OPc7KWXwN-QOkJ8w-49" value="" style="endArrow=classic;startArrow=classic;html=1;rounded=0;exitX=0.308;exitY=0.357;exitDx=0;exitDy=0;exitPerimeter=0;strokeColor=light-dark(#000000,#000000);entryX=1;entryY=0.75;entryDx=0;entryDy=0;entryPerimeter=0;" edge="1" parent="UWKuqt-AQDNdEF9zmf-2-14" source="noT6OPc7KWXwN-QOkJ8w-40" target="UWKuqt-AQDNdEF9zmf-2-45">
          <mxGeometry width="50" height="50" relative="1" as="geometry">
            <mxPoint x="590" y="856" as="sourcePoint" />
            <mxPoint x="640" y="806" as="targetPoint" />
          </mxGeometry>
        </mxCell>
        <mxCell id="noT6OPc7KWXwN-QOkJ8w-50" value="&lt;font style=&quot;color: light-dark(rgb(0, 0, 0), rgb(140, 79, 255));&quot;&gt;IGW &lt;br&gt;(INTERNET GATEWAY)&lt;/font&gt;" style="text;html=1;align=center;verticalAlign=middle;whiteSpace=wrap;rounded=0;fontSize=16;" vertex="1" parent="UWKuqt-AQDNdEF9zmf-2-14">
          <mxGeometry x="62" y="1052" width="212" height="113" as="geometry" />
        </mxCell>
        <mxCell id="UWKuqt-AQDNdEF9zmf-2-37" value="" style="sketch=0;outlineConnect=0;fontColor=#232F3E;gradientColor=none;strokeColor=light-dark(#000000,#FF8822);fillColor=none;dashed=0;verticalLabelPosition=bottom;verticalAlign=top;align=center;html=1;fontSize=12;fontStyle=0;aspect=fixed;shape=mxgraph.aws4.resourceIcon;resIcon=mxgraph.aws4.internet;" parent="UWKuqt-AQDNdEF9zmf-2-14" vertex="1">
          <mxGeometry x="-91" y="983" width="156" height="156" as="geometry" />
        </mxCell>
      </root>
    </mxGraphModel>
  </diagram>
</mxfile>
